<svg xmlns="http://www.w3.org/2000/svg" width="118.039" height="42.068" viewBox="0 0 118.039 42.068"><path d="M148.52,403.426a14.424,14.424,0,0,1-8.645-2.89,17.271,17.271,0,0,1-1.8-1.8,11.223,11.223,0,0,1-1.946-3.5c-1.273-3.813-.618-8.817,1.874-14.309,2.134-4.7,5.426-9.365,11.17-15.823.846-.95,3.366-3.73,3.382-3.73s-.131.238-.3.528a33.853,33.853,0,0,0-3.468,8c-1.118,4.093-.983,7.606.4,10.33a10.09,10.09,0,0,0,4.414,4.4c3.209,1.572,7.908,1.7,13.646.381.4-.092,19.971-5.288,43.5-11.549s42.788-11.379,42.791-11.375-54.671,23.4-83.055,35.54c-4.5,1.922-5.7,2.407-7.81,3.149a39.6,39.6,0,0,1-14.153,2.647Z" transform="translate(-135.499 -361.375)" fill="#fff"/></svg>